<svg width="40" height="40" viewBox="0 0 40 40" fill="none" xmlns="http://www.w3.org/2000/svg">
<rect width="40" height="40" rx="20" fill="#FD7E14"/>
<path d="M30.0014 24.92V27.92C30.0025 28.1985 29.9455 28.4741 29.8339 28.7293C29.7223 28.9845 29.5587 29.2136 29.3535 29.4018C29.1483 29.5901 28.906 29.7335 28.6421 29.8227C28.3783 29.9119 28.0988 29.945 27.8214 29.92C24.7442 29.5856 21.7884 28.5341 19.1914 26.85C16.7752 25.3146 14.7267 23.2661 13.1914 20.85C11.5014 18.2412 10.4496 15.271 10.1214 12.18C10.0964 11.9034 10.1293 11.6247 10.2179 11.3616C10.3065 11.0985 10.449 10.8567 10.6362 10.6516C10.8234 10.4465 11.0512 10.2827 11.3052 10.1705C11.5592 10.0583 11.8337 10.0002 12.1114 9.99997H15.1114C15.5967 9.9952 16.0672 10.1671 16.4352 10.4835C16.8031 10.8 17.0435 11.2394 17.1114 11.72C17.238 12.68 17.4728 13.6227 17.8114 14.53C17.9459 14.8879 17.9751 15.2769 17.8953 15.6509C17.8155 16.0248 17.6303 16.3681 17.3614 16.64L16.0914 17.91C17.515 20.4135 19.5879 22.4864 22.0914 23.91L23.3614 22.64C23.6333 22.3711 23.9766 22.1858 24.3505 22.1061C24.7245 22.0263 25.1135 22.0554 25.4714 22.19C26.3787 22.5285 27.3213 22.7634 28.2814 22.89C28.7672 22.9585 29.2108 23.2032 29.5279 23.5775C29.8451 23.9518 30.0136 24.4296 30.0014 24.92Z" stroke="white" stroke-width="2" stroke-linecap="round" stroke-linejoin="round"/>
</svg>
