<svg width="536" height="432" viewBox="0 0 536 432" fill="none" xmlns="http://www.w3.org/2000/svg">
<path d="M455.42 53.0106C495.507 89.5824 510.354 152.277 522.974 216.464C534.851 280.652 543.759 346.332 524.458 409.773C505.9 473.96 458.39 536.655 398.26 556.806C337.388 576.212 263.896 552.328 195.6 522.474C128.047 492.619 65.6897 457.54 32.2842 403.802C-1.12126 349.317 -6.31767 276.92 6.30218 208.254C18.922 138.842 48.6158 73.1624 98.3528 37.3369C148.09 2.25778 217.87 -2.22042 284.681 0.765042C351.492 4.49686 416.076 15.6923 455.42 53.0106Z" fill="url(#paint0_linear_1_3300)"/>
<defs>
<linearGradient id="paint0_linear_1_3300" x1="0" y1="563.827" x2="563.091" y2="28.8075" gradientUnits="userSpaceOnUse">
<stop stop-color="#F87537"/>
<stop offset="1" stop-color="#FBA81F"/>
</linearGradient>
</defs>
</svg>
